M48
INCH,TZ
VER,1
FMAT,2
DETECT,ON
ATC,ON
T1C0.0394
T2C0.0392
T3C0.0350
T4C0.0315
T5C0.0354
%
T1
X13031Y18984
Y17016
X16969Y18984
Y17016
X14016Y23831
X15984
X14016Y27769
X15984
T2
X26094Y27960
X18888Y19362
T3
X27094Y27960
X18888Y18362
X20517Y21185
X21517Y18185
X23517
X22517
X23517Y21185
X21517
X22517
X20517Y18185
X26679Y25565
X26179Y25065
X25679Y25565
T4
X18987Y16400
X18200
X20419Y16398
X21206
X22867
X23655
T5
X22518Y24000
X17400
X22518Y22400
X17400
X13924Y20829
X19042
X25240Y18207
Y23325
X23737Y22333
Y27452
X17600Y26800
X21600
X17600Y25400
X21600
M30
