G04 Generated by Ultiboard 14.1 *
%FSLAX33Y33*%
%MOMM*%

%ADD10C,0.001*%
%ADD11C,0.127*%
%ADD12C,1.356*%
%ADD13R,0.529X0.529*%
%ADD14C,0.995*%
%ADD15C,1.609*%
%ADD16C,1.400*%
%ADD17R,1.400X1.400*%
%ADD18C,1.500*%
%ADD19R,1.500X1.500*%
%ADD20C,1.245*%
%ADD21R,1.245X1.245*%


G04 ColorRGB 00FF00 for the following layer *
%LNCopper Top*%
%LPD*%
G54D10*
G54D11*
X31496Y37846D02*
X31496Y41377D01*
X31496Y37846D02*
X35433Y37846D01*
X70867Y37846D02*
X66930Y37846D01*
X70867Y37846D02*
X70867Y41377D01*
X70867Y73158D02*
X70867Y69627D01*
X70867Y73158D02*
X66930Y73158D01*
X31496Y73158D02*
X35433Y73158D01*
X31496Y73158D02*
X31496Y69627D01*
X26496Y37846D02*
X16496Y37846D01*
X21496Y32846D02*
X21496Y42846D01*
X17746Y37846D02*
G75*
D01*
G02X17746Y37846I3750J0*
G01*
X75867Y37846D02*
X85867Y37846D01*
X80867Y32846D02*
X80867Y42846D01*
X77117Y37846D02*
G75*
D01*
G02X77117Y37846I3750J0*
G01*
X79617Y37846D02*
G75*
D01*
G02X79617Y37846I1250J0*
G01*
X26496Y73158D02*
X16496Y73158D01*
X21496Y68158D02*
X21496Y78158D01*
X17746Y73158D02*
G75*
D01*
G02X17746Y73158I3750J0*
G01*
X18996Y73158D02*
G75*
D01*
G02X18996Y73158I2500J0*
G01*
X20246Y73158D02*
G75*
D01*
G02X20246Y73158I1250J0*
G01*
G54D12*
X33100Y48220D03*
X33100Y43220D03*
X43100Y48220D03*
X43100Y43220D03*
X35600Y60532D03*
X40600Y60532D03*
X35600Y70532D03*
X40600Y70532D03*
G54D13*
X66279Y71019D03*
X47975Y49179D03*
G54D14*
X66015Y70755D02*
X66543Y70755D01*
X66543Y71283D01*
X66015Y71283D01*
X66015Y70755D01*D02*
X47711Y48915D02*
X48239Y48915D01*
X48239Y49443D01*
X47711Y49443D01*
X47711Y48915D01*D02*
G54D15*
X68819Y71019D03*
X47975Y46639D03*
G54D16*
X48228Y41656D03*
X51864Y41650D03*
X58083Y41650D03*
G54D17*
X46228Y41656D03*
X53864Y41650D03*
X60083Y41650D03*
G54D18*
X57196Y60960D03*
X57196Y56896D03*
X35368Y52907D03*
X64111Y46246D03*
X60292Y56727D03*
X44704Y68072D03*
X44704Y64516D03*
G54D19*
X44196Y60960D03*
X44196Y56896D03*
X48368Y52907D03*
X64111Y59246D03*
X60292Y69727D03*
X54864Y68072D03*
X54864Y64516D03*
G54D20*
X52114Y53810D03*
X54654Y46190D03*
X59734Y46190D03*
X57194Y46190D03*
X59734Y53810D03*
X54654Y53810D03*
X57194Y53810D03*
X67766Y64936D03*
X66496Y63666D03*
G54D21*
X52114Y46190D03*
X65226Y64936D03*

M02*
