G04 Generated by Ultiboard 14.1 *
%FSLAX33Y33*%
%MOMM*%

%ADD10C,0.001*%
%ADD11C,0.127*%


G04 ColorRGB FF14FF for the following layer *
%LNSilkscreen Bottom*%
%LPD*%
G54D10*
G54D11*
X31496Y37846D02*
X31496Y41377D01*
X31496Y37846D02*
X35433Y37846D01*
X70867Y37846D02*
X66930Y37846D01*
X70867Y37846D02*
X70867Y41377D01*
X70867Y73158D02*
X70867Y69627D01*
X70867Y73158D02*
X66930Y73158D01*
X31496Y73158D02*
X35433Y73158D01*
X31496Y73158D02*
X31496Y69627D01*
X26496Y37846D02*
X16496Y37846D01*
X21496Y32846D02*
X21496Y42846D01*
X17746Y37846D02*
G75*
D01*
G02X17746Y37846I3750J0*
G01*
X75867Y37846D02*
X85867Y37846D01*
X80867Y32846D02*
X80867Y42846D01*
X77117Y37846D02*
G75*
D01*
G02X77117Y37846I3750J0*
G01*
X79617Y37846D02*
G75*
D01*
G02X79617Y37846I1250J0*
G01*
X26496Y73158D02*
X16496Y73158D01*
X21496Y68158D02*
X21496Y78158D01*
X17746Y73158D02*
G75*
D01*
G02X17746Y73158I3750J0*
G01*
X18996Y73158D02*
G75*
D01*
G02X18996Y73158I2500J0*
G01*
X20246Y73158D02*
G75*
D01*
G02X20246Y73158I1250J0*
G01*

M02*
