G04 Generated by Ultiboard 14.1 *
%FSLAX33Y33*%
%MOMM*%

%ADD10C,0.001*%
%ADD11C,0.203*%
%ADD12C,0.001*%
%ADD13C,0.100*%
%ADD14C,0.071*%
%ADD15C,0.200*%
%ADD16C,0.150*%
%ADD17C,0.254*%
%ADD18C,0.056*%
%ADD19C,0.127*%
%ADD20C,0.50000*%
%ADD21C,1.00000*%


G04 ColorRGB FFFF00 for the following layer *
%LNSilkscreen Top*%
%LPD*%
G54D10*
G54D11*
X33100Y50720D02*
X33100Y40720D01*
X43100Y40720D01*
X43100Y50720D01*
X33514Y48220D02*
G75*
D01*
G02X33514Y48220I1000J0*
G01*
X37600Y50720D02*
X37602Y50676D01*
X37608Y50633D01*
X37617Y50591D01*
X37630Y50549D01*
X37647Y50509D01*
X37667Y50470D01*
X37690Y50433D01*
X37717Y50399D01*
X37746Y50366D01*
X37779Y50337D01*
X37813Y50310D01*
X37850Y50287D01*
X37889Y50267D01*
X37929Y50250D01*
X37971Y50237D01*
X38013Y50228D01*
X38056Y50222D01*
X38100Y50220D01*
X38144Y50222D01*
X38187Y50228D01*
X38229Y50237D01*
X38271Y50250D01*
X38311Y50267D01*
X38350Y50287D01*
X38387Y50310D01*
X38421Y50337D01*
X38454Y50366D01*
X38483Y50399D01*
X38510Y50433D01*
X38533Y50470D01*
X38553Y50509D01*
X38570Y50549D01*
X38583Y50591D01*
X38592Y50633D01*
X38598Y50676D01*
X38600Y50720D01*
X43100Y50720D02*
X38600Y50720D01*
X37600Y50720D02*
X33100Y50720D01*
X33100Y60532D02*
X43100Y60532D01*
X43100Y70532D01*
X33100Y70532D01*
X34600Y61946D02*
G75*
D01*
G02X34600Y61946I1000J0*
G01*
X33100Y65032D02*
X33144Y65034D01*
X33187Y65040D01*
X33229Y65049D01*
X33271Y65062D01*
X33311Y65079D01*
X33350Y65099D01*
X33387Y65122D01*
X33421Y65149D01*
X33454Y65178D01*
X33483Y65211D01*
X33510Y65245D01*
X33533Y65282D01*
X33553Y65321D01*
X33570Y65361D01*
X33583Y65403D01*
X33592Y65445D01*
X33598Y65488D01*
X33600Y65532D01*
X33598Y65576D01*
X33592Y65619D01*
X33583Y65661D01*
X33570Y65703D01*
X33553Y65743D01*
X33533Y65782D01*
X33510Y65819D01*
X33483Y65853D01*
X33454Y65886D01*
X33421Y65915D01*
X33387Y65942D01*
X33350Y65965D01*
X33311Y65985D01*
X33271Y66002D01*
X33229Y66015D01*
X33187Y66024D01*
X33144Y66030D01*
X33100Y66032D01*
X33100Y70532D02*
X33100Y66032D01*
X33100Y65032D02*
X33100Y60532D01*
X65150Y68814D02*
X65432Y68663D01*
X65715Y68663D01*
X65997Y68814D01*
X65997Y69419D01*
X66420Y69268D02*
X66702Y69419D01*
X66985Y69419D01*
X67267Y69268D01*
X67267Y69192D01*
X66420Y68663D01*
X67267Y68663D01*
X67267Y68739D01*
X70089Y69749D02*
X65009Y69749D01*
X66914Y72289D02*
X65009Y72289D01*
X65009Y69749D01*
X70089Y72289D02*
X67761Y72289D01*
X67337Y72289D02*
X67337Y71442D01*
X67126Y72077D02*
X67337Y72289D01*
X70089Y72289D02*
X70089Y69749D01*
X45770Y50308D02*
X45619Y50026D01*
X45619Y49744D01*
X45770Y49462D01*
X46375Y49462D01*
X46224Y48897D02*
X46375Y48615D01*
X45619Y48615D01*
X45619Y49038D02*
X45619Y48192D01*
X46705Y45369D02*
X46705Y50449D01*
X49245Y48544D02*
X49245Y50449D01*
X46705Y50449D01*
X49245Y45369D02*
X49245Y47698D01*
X49245Y48121D02*
X48398Y48121D01*
X49033Y48333D02*
X49245Y48121D01*
X49245Y45369D02*
X46705Y45369D01*
X46925Y37556D02*
X46726Y37356D01*
X46527Y37356D01*
X46328Y37556D01*
X46328Y38156D01*
X46527Y38356D01*
X46726Y38356D01*
X46925Y38156D01*
X47323Y38256D02*
X47423Y38356D01*
X47622Y38356D01*
X47821Y38156D01*
X47821Y37956D01*
X47721Y37856D01*
X47821Y37756D01*
X47821Y37556D01*
X47622Y37356D01*
X47423Y37356D01*
X47323Y37456D01*
X47423Y37856D02*
X47721Y37856D01*
X44628Y41656D02*
G75*
D01*
G02X44628Y41656I2500J0*
G01*
X49796Y57860D02*
X49796Y58860D01*
X50194Y58860D01*
X50393Y58660D01*
X50393Y58560D01*
X50194Y58360D01*
X49796Y58360D01*
X49895Y58360D02*
X50393Y57860D01*
X51289Y58860D02*
X50692Y58860D01*
X50692Y58460D01*
X51090Y58460D01*
X51289Y58260D01*
X51289Y58060D01*
X51090Y57860D01*
X50692Y57860D01*
X49796Y53796D02*
X49796Y54796D01*
X50194Y54796D01*
X50393Y54596D01*
X50393Y54496D01*
X50194Y54296D01*
X49796Y54296D01*
X49895Y54296D02*
X50393Y53796D01*
X50692Y54596D02*
X50891Y54796D01*
X51090Y54796D01*
X51289Y54596D01*
X51289Y54496D01*
X50692Y53796D01*
X51289Y53796D01*
X51289Y53896D01*
X42768Y56007D02*
X42768Y55007D01*
X42370Y55007D01*
X42171Y55207D01*
X42171Y55307D01*
X42370Y55507D01*
X42768Y55507D01*
X42668Y55507D02*
X42171Y56007D01*
X41772Y55207D02*
X41573Y55007D01*
X41573Y56007D01*
X41872Y56007D02*
X41275Y56007D01*
X55257Y45359D02*
X55257Y44559D01*
X55456Y44359D01*
X55656Y44359D01*
X55855Y44559D01*
X55855Y45359D01*
X56253Y45159D02*
X56452Y45359D01*
X56452Y44359D01*
X56153Y44359D02*
X56751Y44359D01*
X61384Y52737D02*
X50464Y52737D01*
X50464Y47263D02*
X61384Y47263D01*
X50464Y52737D02*
X50464Y47263D01*
X61384Y47263D02*
X61384Y52737D01*
X53167Y45750D02*
X53366Y45950D01*
X53565Y45950D01*
X53764Y45750D01*
X53764Y45150D01*
X53565Y44950D01*
X53366Y44950D01*
X53167Y45150D01*
X52769Y45150D02*
X52570Y44950D01*
X52570Y45950D01*
X52868Y45950D02*
X52271Y45950D01*
X50464Y41650D02*
G75*
D01*
G02X50464Y41650I2500J0*
G01*
X59386Y45750D02*
X59585Y45950D01*
X59784Y45950D01*
X59983Y45750D01*
X59983Y45150D01*
X59784Y44950D01*
X59585Y44950D01*
X59386Y45150D01*
X59087Y45150D02*
X58888Y44950D01*
X58689Y44950D01*
X58490Y45150D01*
X58490Y45250D01*
X59087Y45950D01*
X58490Y45950D01*
X58490Y45850D01*
X56683Y41650D02*
G75*
D01*
G02X56683Y41650I2500J0*
G01*
X61011Y53647D02*
X62011Y53647D01*
X62011Y53249D01*
X61811Y53049D01*
X61711Y53049D01*
X61511Y53249D01*
X61511Y53647D01*
X61511Y53547D02*
X61011Y53049D01*
X61411Y52153D02*
X61411Y52751D01*
X62011Y52253D01*
X61011Y52253D01*
X61011Y52353D02*
X61011Y52153D01*
X57192Y64127D02*
X58192Y64127D01*
X58192Y63729D01*
X57992Y63530D01*
X57892Y63530D01*
X57692Y63729D01*
X57692Y64127D01*
X57692Y64028D02*
X57192Y63530D01*
X58092Y63132D02*
X58192Y63032D01*
X58192Y62833D01*
X57992Y62634D01*
X57792Y62634D01*
X57692Y62734D01*
X57592Y62634D01*
X57392Y62634D01*
X57192Y62833D01*
X57192Y63032D01*
X57292Y63132D01*
X57692Y63032D02*
X57692Y62734D01*
X52152Y66922D02*
X52152Y69222D01*
X47152Y69222D02*
X47152Y66922D01*
X52152Y69222D02*
X47152Y69222D01*
X47152Y66922D02*
X52152Y66922D01*
X52152Y63366D02*
X52152Y65666D01*
X47152Y65666D02*
X47152Y63366D01*
X52152Y65666D02*
X47152Y65666D01*
X47152Y63366D02*
X52152Y63366D01*
G54D12*
G36*
X43195Y42097D02*
X43195Y42097D01*
X43444Y40678D01*
X43444Y42097D01*
X43195Y42097D01*
D02*
G37*
X43444Y40678D01*
X43444Y42097D01*
X43195Y42097D01*
G36*
X43444Y40678D02*
X43444Y40678D01*
X43195Y42097D01*
X43195Y41513D01*
X43444Y40678D01*
D02*
G37*
X43195Y42097D01*
X43195Y41513D01*
X43444Y40678D01*
G36*
X43195Y41513D02*
X43195Y41513D01*
X43195Y41267D01*
X43444Y40678D01*
X43195Y41513D01*
D02*
G37*
X43195Y41267D01*
X43444Y40678D01*
X43195Y41513D01*
G36*
X43195Y41267D02*
X43195Y41267D01*
X43195Y41513D01*
X42610Y41513D01*
X43195Y41267D01*
D02*
G37*
X43195Y41513D01*
X42610Y41513D01*
X43195Y41267D01*
G36*
X42610Y41513D02*
X42610Y41513D01*
X42610Y41267D01*
X43195Y41267D01*
X42610Y41513D01*
D02*
G37*
X42610Y41267D01*
X43195Y41267D01*
X42610Y41513D01*
G36*
X43444Y41267D02*
X43444Y41267D01*
X44028Y41267D01*
X43444Y41513D01*
X43444Y41267D01*
D02*
G37*
X44028Y41267D01*
X43444Y41513D01*
X43444Y41267D01*
G36*
X43444Y41267D01*
X43444Y42097D01*
X43444Y41267D01*
D02*
G37*
X43444Y42097D01*
X43444Y41267D01*
G36*
X43444Y41267D01*
X43444Y42097D01*
X43444Y40678D01*
X43444Y41267D01*
D02*
G37*
X43444Y42097D01*
X43444Y40678D01*
X43444Y41267D01*
G36*
X43444Y41513D02*
X43444Y41513D01*
X44028Y41267D01*
X44028Y41513D01*
X43444Y41513D01*
D02*
G37*
X44028Y41267D01*
X44028Y41513D01*
X43444Y41513D01*
G36*
X43444Y40678D02*
X43444Y40678D01*
X43195Y41267D01*
X43195Y40678D01*
X43444Y40678D01*
D02*
G37*
X43195Y41267D01*
X43195Y40678D01*
X43444Y40678D01*
G36*
X56648Y42628D02*
X56648Y42628D01*
X56897Y41209D01*
X56897Y42628D01*
X56648Y42628D01*
D02*
G37*
X56897Y41209D01*
X56897Y42628D01*
X56648Y42628D01*
G36*
X56897Y41209D02*
X56897Y41209D01*
X56648Y42628D01*
X56648Y42039D01*
X56897Y41209D01*
D02*
G37*
X56648Y42628D01*
X56648Y42039D01*
X56897Y41209D01*
G36*
X56648Y42039D02*
X56648Y42039D01*
X56648Y41793D01*
X56897Y41209D01*
X56648Y42039D01*
D02*
G37*
X56648Y41793D01*
X56897Y41209D01*
X56648Y42039D01*
G36*
X56648Y41793D02*
X56648Y41793D01*
X56648Y42039D01*
X56063Y42039D01*
X56648Y41793D01*
D02*
G37*
X56648Y42039D01*
X56063Y42039D01*
X56648Y41793D01*
G36*
X56063Y42039D02*
X56063Y42039D01*
X56063Y41793D01*
X56648Y41793D01*
X56063Y42039D01*
D02*
G37*
X56063Y41793D01*
X56648Y41793D01*
X56063Y42039D01*
G36*
X56897Y41793D02*
X56897Y41793D01*
X57481Y41793D01*
X56897Y42039D01*
X56897Y41793D01*
D02*
G37*
X57481Y41793D01*
X56897Y42039D01*
X56897Y41793D01*
G36*
X56897Y41793D01*
X56897Y42628D01*
X56897Y41793D01*
D02*
G37*
X56897Y42628D01*
X56897Y41793D01*
G36*
X56897Y41793D01*
X56897Y42628D01*
X56897Y41209D01*
X56897Y41793D01*
D02*
G37*
X56897Y42628D01*
X56897Y41209D01*
X56897Y41793D01*
G36*
X56897Y42039D02*
X56897Y42039D01*
X57481Y41793D01*
X57481Y42039D01*
X56897Y42039D01*
D02*
G37*
X57481Y41793D01*
X57481Y42039D01*
X56897Y42039D01*
G36*
X56897Y41209D02*
X56897Y41209D01*
X56648Y41793D01*
X56648Y41209D01*
X56897Y41209D01*
D02*
G37*
X56648Y41793D01*
X56648Y41209D01*
X56897Y41209D01*
G36*
X62867Y42628D02*
X62867Y42628D01*
X63116Y41209D01*
X63116Y42628D01*
X62867Y42628D01*
D02*
G37*
X63116Y41209D01*
X63116Y42628D01*
X62867Y42628D01*
G36*
X63116Y41209D02*
X63116Y41209D01*
X62867Y42628D01*
X62867Y42039D01*
X63116Y41209D01*
D02*
G37*
X62867Y42628D01*
X62867Y42039D01*
X63116Y41209D01*
G36*
X62867Y42039D02*
X62867Y42039D01*
X62867Y41793D01*
X63116Y41209D01*
X62867Y42039D01*
D02*
G37*
X62867Y41793D01*
X63116Y41209D01*
X62867Y42039D01*
G36*
X62867Y41793D02*
X62867Y41793D01*
X62867Y42039D01*
X62283Y42039D01*
X62867Y41793D01*
D02*
G37*
X62867Y42039D01*
X62283Y42039D01*
X62867Y41793D01*
G36*
X62283Y42039D02*
X62283Y42039D01*
X62283Y41793D01*
X62867Y41793D01*
X62283Y42039D01*
D02*
G37*
X62283Y41793D01*
X62867Y41793D01*
X62283Y42039D01*
G36*
X63116Y41793D02*
X63116Y41793D01*
X63701Y41793D01*
X63116Y42039D01*
X63116Y41793D01*
D02*
G37*
X63701Y41793D01*
X63116Y42039D01*
X63116Y41793D01*
G36*
X63116Y41793D01*
X63116Y42628D01*
X63116Y41793D01*
D02*
G37*
X63116Y42628D01*
X63116Y41793D01*
G36*
X63116Y41793D01*
X63116Y42628D01*
X63116Y41209D01*
X63116Y41793D01*
D02*
G37*
X63116Y42628D01*
X63116Y41209D01*
X63116Y41793D01*
G36*
X63116Y42039D02*
X63116Y42039D01*
X63701Y41793D01*
X63701Y42039D01*
X63116Y42039D01*
D02*
G37*
X63701Y41793D01*
X63701Y42039D01*
X63116Y42039D01*
G36*
X63116Y41209D02*
X63116Y41209D01*
X62867Y41793D01*
X62867Y41209D01*
X63116Y41209D01*
D02*
G37*
X62867Y41793D01*
X62867Y41209D01*
X63116Y41209D01*
G54D13*
X47196Y62250D02*
X54196Y62250D01*
X54196Y59700D01*
X47196Y59700D01*
X47196Y62250D01*
X45596Y60960D02*
X47196Y60960D01*
X54196Y60960D02*
X55896Y60960D01*
X47196Y58186D02*
X54196Y58186D01*
X54196Y55636D01*
X47196Y55636D01*
X47196Y58186D01*
X45596Y56896D02*
X47196Y56896D01*
X54196Y56896D02*
X55896Y56896D01*
X45368Y51617D02*
X38368Y51617D01*
X38368Y54167D01*
X45368Y54167D01*
X45368Y51617D01*
X46968Y52907D02*
X45368Y52907D01*
X38368Y52907D02*
X36668Y52907D01*
X65401Y56246D02*
X62851Y56246D01*
X62851Y49246D01*
X65401Y49246D01*
X65401Y56246D01*
X64111Y57846D02*
X64111Y56246D01*
X64111Y49246D02*
X64111Y47546D01*
X61582Y66727D02*
X59032Y66727D01*
X59032Y59727D01*
X61582Y59727D01*
X61582Y66727D01*
X60292Y68327D02*
X60292Y66727D01*
X60292Y59727D02*
X60292Y58027D01*
G36*
X51253Y66987D02*
X51253Y69228D01*
X52053Y69228D01*
X52053Y66987D01*
X51253Y66987D01*
G37*
G36*
X51253Y63431D02*
X51253Y65672D01*
X52053Y65672D01*
X52053Y63431D01*
X51253Y63431D01*
G37*
G54D14*
X65894Y60435D02*
X66044Y60284D01*
X66195Y60284D01*
X66345Y60435D01*
X66345Y60888D01*
X66195Y61039D01*
X66044Y61039D01*
X65894Y60888D01*
X65894Y60435D01*
X66195Y60435D02*
X66345Y60284D01*
X66646Y60888D02*
X66797Y61039D01*
X66797Y60284D01*
X66571Y60284D02*
X67022Y60284D01*
G54D15*
X63696Y64936D02*
G75*
D01*
G02X63696Y64936I2800J0*
G01*
X64096Y67086D02*
X64396Y66786D01*
X64346Y67336D02*
X64646Y67036D01*
X64346Y67336D02*
X64096Y67086D01*
G54D16*
X50315Y69532D02*
X50315Y70389D01*
X50102Y70603D01*
X49889Y70603D01*
X49675Y70389D01*
X49675Y69532D01*
X49249Y69639D02*
X49142Y69532D01*
X48929Y69532D01*
X48715Y69746D01*
X48715Y69960D01*
X48822Y70067D01*
X48715Y70175D01*
X48715Y70389D01*
X48929Y70603D01*
X49142Y70603D01*
X49249Y70496D01*
X49142Y70067D02*
X48822Y70067D01*
X50315Y65976D02*
X50315Y66833D01*
X50102Y67047D01*
X49889Y67047D01*
X49675Y66833D01*
X49675Y65976D01*
X49355Y66190D02*
X49142Y65976D01*
X48929Y65976D01*
X48715Y66190D01*
X48715Y66297D01*
X49355Y67047D01*
X48715Y67047D01*
X48715Y66940D01*
G54D17*
X52252Y68072D02*
X52852Y68072D01*
X46452Y68072D02*
X47102Y68072D01*
X52252Y64516D02*
X52852Y64516D01*
X46452Y64516D02*
X47102Y64516D01*
G54D18*
X46486Y67863D02*
X46486Y67649D01*
X46415Y67506D01*
X46344Y67506D01*
X46273Y67649D01*
X46273Y67863D01*
X46486Y67756D02*
X46273Y67756D01*
X53251Y67796D02*
X53323Y67725D01*
X53323Y67654D01*
X53251Y67583D01*
X53037Y67583D01*
X52966Y67654D01*
X52966Y67725D01*
X53037Y67796D01*
X46486Y64307D02*
X46486Y64093D01*
X46415Y63950D01*
X46344Y63950D01*
X46273Y64093D01*
X46273Y64307D01*
X46486Y64200D02*
X46273Y64200D01*
X53251Y64240D02*
X53323Y64169D01*
X53323Y64098D01*
X53251Y64027D01*
X53037Y64027D01*
X52966Y64098D01*
X52966Y64169D01*
X53037Y64240D01*
G54D19*
X31496Y37846D02*
X31496Y41377D01*
X31496Y37846D02*
X35433Y37846D01*
X70867Y37846D02*
X66930Y37846D01*
X70867Y37846D02*
X70867Y41377D01*
X70867Y73158D02*
X70867Y69627D01*
X70867Y73158D02*
X66930Y73158D01*
X31496Y73158D02*
X35433Y73158D01*
X31496Y73158D02*
X31496Y69627D01*
X26496Y37846D02*
X16496Y37846D01*
X21496Y32846D02*
X21496Y42846D01*
X17746Y37846D02*
G75*
D01*
G02X17746Y37846I3750J0*
G01*
X75867Y37846D02*
X85867Y37846D01*
X80867Y32846D02*
X80867Y42846D01*
X77117Y37846D02*
G75*
D01*
G02X77117Y37846I3750J0*
G01*
X79617Y37846D02*
G75*
D01*
G02X79617Y37846I1250J0*
G01*
X26496Y73158D02*
X16496Y73158D01*
X21496Y68158D02*
X21496Y78158D01*
X17746Y73158D02*
G75*
D01*
G02X17746Y73158I3750J0*
G01*
X18996Y73158D02*
G75*
D01*
G02X18996Y73158I2500J0*
G01*
X20246Y73158D02*
G75*
D01*
G02X20246Y73158I1250J0*
G01*
G54D20*
X50848Y45682D03*
G54D21*
X51360Y48222D03*

M02*
